<svg xmlns="http://www.w3.org/2000/svg" width="900" height="360" viewBox="0 0 900 360">
<rect width="100%" height="100%" fill="#ffffff"/>
<line x1="56" y1="304" x2="844" y2="304" stroke="#4b5563"/>
<line x1="56" y1="56" x2="56" y2="304" stroke="#4b5563"/>
<polyline fill="none" stroke="#2563eb" stroke-width="3" points="56.00,56.00 59.09,69.85 62.18,86.29 65.27,103.50 68.36,118.92 71.45,131.37 74.54,141.49 77.63,150.59 80.72,159.59 83.81,168.43 86.90,176.23 89.99,181.73 93.08,185.09 96.17,188.10 99.26,192.07 102.35,196.75 105.44,201.06 108.53,204.15 111.62,206.12 114.71,207.66 117.80,209.34 120.89,211.39 123.98,213.65 127.07,215.85 130.16,217.75 133.25,219.25 136.35,220.47 139.44,221.65 142.53,222.95 145.62,224.37 148.71,225.79 151.80,227.12 154.89,228.34 157.98,229.49 161.07,230.59 164.16,231.61 167.25,232.54 170.34,233.43 173.43,234.39 176.52,235.43 179.61,236.47 182.70,237.40 185.79,238.17 188.88,238.84 191.97,239.51 195.06,240.28 198.15,241.15 201.24,242.03 204.33,242.78 207.42,243.38 210.51,243.90 213.60,244.47 216.69,245.16 219.78,245.91 222.87,246.61 225.96,247.17 229.05,247.65 232.14,248.13 235.23,248.70 238.32,249.32 241.41,249.93 244.50,250.47 247.59,250.93 250.68,251.38 253.77,251.87 256.86,252.41 259.95,252.94 263.04,253.42 266.13,253.86 269.22,254.30 272.31,254.75 275.40,255.22 278.49,255.69 281.58,256.13 284.67,256.56 287.76,256.97 290.85,257.40 293.95,257.82 297.04,258.25 300.13,258.66 303.22,259.06 306.31,259.46 309.40,259.85 312.49,260.25 315.58,260.64 318.67,261.03 321.76,261.41 324.85,261.79 327.94,262.16 331.03,262.54 334.12,262.91 337.21,263.28 340.30,263.64 343.39,264.00 346.48,264.36 349.57,264.71 352.66,265.07 355.75,265.42 358.84,265.77 361.93,266.11 365.02,266.45 368.11,266.80 371.20,267.14 374.29,267.47 377.38,267.80 380.47,268.14 383.56,268.47 386.65,268.80 389.74,269.12 392.83,269.44 395.92,269.76 399.01,270.08 402.10,270.40 405.19,270.72 408.28,271.03 411.37,271.35 414.46,271.66 417.55,271.97 420.64,272.27 423.73,272.58 426.82,272.88 429.91,273.19 433.00,273.49 436.09,273.78 439.18,274.08 442.27,274.38 445.36,274.67 448.45,274.97 451.55,275.26 454.64,275.55 457.73,275.84 460.82,276.12 463.91,276.41 467.00,276.69 470.09,276.98 473.18,277.26 476.27,277.54 479.36,277.82 482.45,278.09 485.54,278.37 488.63,278.64 491.72,278.92 494.81,279.19 497.90,279.46 500.99,279.73 504.08,280.00 507.17,280.27 510.26,280.53 513.35,280.80 516.44,281.06 519.53,281.32 522.62,281.59 525.71,281.85 528.80,282.11 531.89,282.36 534.98,282.62 538.07,282.88 541.16,283.13 544.25,283.39 547.34,283.64 550.43,283.89 553.52,284.14 556.61,284.39 559.70,284.64 562.79,284.89 565.88,285.13 568.97,285.38 572.06,285.62 575.15,285.86 578.24,286.11 581.33,286.35 584.42,286.59 587.51,286.83 590.60,287.07 593.69,287.30 596.78,287.54 599.87,287.78 602.96,288.01 606.05,288.25 609.15,288.48 612.24,288.71 615.33,288.94 618.42,289.17 621.51,289.40 624.60,289.63 627.69,289.86 630.78,290.09 633.87,290.31 636.96,290.54 640.05,290.76 643.14,290.99 646.23,291.21 649.32,291.43 652.41,291.65 655.50,291.87 658.59,292.09 661.68,292.31 664.77,292.53 667.86,292.75 670.95,292.96 674.04,293.18 677.13,293.39 680.22,293.61 683.31,293.82 686.40,294.03 689.49,294.24 692.58,294.45 695.67,294.67 698.76,294.88 701.85,295.09 704.94,295.29 708.03,295.50 711.12,295.71 714.21,295.91 717.30,296.12 720.39,296.32 723.48,296.53 726.57,296.73 729.66,296.93 732.75,297.14 735.84,297.34 738.93,297.54 742.02,297.74 745.11,297.94 748.20,298.14 751.29,298.33 754.38,298.53 757.47,298.73 760.56,298.93 763.65,299.12 766.75,299.32 769.84,299.51 772.93,299.71 776.02,299.90 779.11,300.09 782.20,300.28 785.29,300.47 788.38,300.66 791.47,300.86 794.56,301.04 797.65,301.23 800.74,301.42 803.83,301.61 806.92,301.80 810.01,301.98 813.10,302.17 816.19,302.36 819.28,302.54 822.37,302.73 825.46,302.91 828.55,303.09 831.64,303.28 834.73,303.46 837.82,303.64 840.91,303.82 844.00,304.00"/>
<circle cx="56" cy="56.00" r="4" fill="#dc2626"/>
<circle cx="844" cy="304.00" r="4" fill="#16a34a"/>
<text x="56" y="32" font-family="Arial" font-size="18" fill="#111827">BC loss curve, log10 scale, 256 updates</text>
<text x="56" y="342" font-family="Arial" font-size="13" fill="#374151">update step 0 to 255</text>
<text x="64" y="74" font-family="Arial" font-size="13" fill="#374151">initial 0.557795</text>
<text x="654" y="292" font-family="Arial" font-size="13" fill="#374151">final 0.000326</text>
</svg>
